<svg xmlns="http://www.w3.org/2000/svg" width="720" height="240" viewBox="0 0 720 240">
<defs>
<linearGradient id="line" x1="0" y1="0" x2="1" y2="0">
<stop offset="0%" stop-color="#bd93f9"/>
<stop offset="100%" stop-color="#50fa7b"/>
</linearGradient>
<linearGradient id="fill" x1="0" y1="0" x2="0" y2="1">
<stop offset="0%" stop-color="#bd93f9" stop-opacity="0.28"/>
<stop offset="100%" stop-color="#50fa7b" stop-opacity="0.05"/>
</linearGradient>
</defs>
<rect width="720" height="240" fill="#282a36"/>
<text x="52" y="18" font-size="13" font-weight="bold" fill="#f8f8f2">Plaid — stars over time</text>
<text x="704" y="18" text-anchor="end" font-size="12" fill="#50fa7b">11 ★</text>
<line x1="52" y1="206.0" x2="704" y2="206.0" stroke="#44475a" stroke-width="1"/><line x1="52" y1="156.9" x2="704" y2="156.9" stroke="#44475a" stroke-width="1"/><line x1="52" y1="107.8" x2="704" y2="107.8" stroke="#44475a" stroke-width="1"/><line x1="52" y1="58.7" x2="704" y2="58.7" stroke="#44475a" stroke-width="1"/>
<text x="44" y="210.0" text-anchor="end" font-size="11" fill="#6272a4">0</text><text x="44" y="160.9" text-anchor="end" font-size="11" fill="#6272a4">3</text><text x="44" y="111.8" text-anchor="end" font-size="11" fill="#6272a4">6</text><text x="44" y="62.7" text-anchor="end" font-size="11" fill="#6272a4">9</text>
<text x="52.0" y="228" text-anchor="middle" font-size="11" fill="#6272a4">Aug 05</text><text x="215.0" y="228" text-anchor="middle" font-size="11" fill="#6272a4">Aug 16</text><text x="378.0" y="228" text-anchor="middle" font-size="11" fill="#6272a4">Aug 27</text><text x="541.0" y="228" text-anchor="middle" font-size="11" fill="#6272a4">Sep 07</text><text x="704.0" y="228" text-anchor="middle" font-size="11" fill="#6272a4">Sep 18</text>
<path d="M52.0,206.0 L52.0,173.3 L66.8,156.9 L81.6,140.5 L96.5,75.1 L111.3,75.1 L126.1,58.7 L140.9,58.7 L155.7,58.7 L170.5,58.7 L185.4,58.7 L200.2,58.7 L215.0,58.7 L229.8,58.7 L244.6,58.7 L259.5,58.7 L274.3,58.7 L289.1,58.7 L303.9,58.7 L318.7,58.7 L333.5,58.7 L348.4,58.7 L363.2,58.7 L378.0,58.7 L392.8,58.7 L407.6,58.7 L422.5,58.7 L437.3,58.7 L452.1,42.4 L466.9,42.4 L481.7,42.4 L496.5,42.4 L511.4,42.4 L526.2,42.4 L541.0,26.0 L555.8,26.0 L570.6,26.0 L585.5,26.0 L600.3,26.0 L615.1,26.0 L629.9,26.0 L644.7,26.0 L659.5,26.0 L674.4,26.0 L689.2,26.0 L704.0,26.0 L704.0,26.0 L704.0,206.0 Z" fill="url(#fill)"/>
<path d="M52.0,173.3 66.8,156.9 81.6,140.5 96.5,75.1 111.3,75.1 126.1,58.7 140.9,58.7 155.7,58.7 170.5,58.7 185.4,58.7 200.2,58.7 215.0,58.7 229.8,58.7 244.6,58.7 259.5,58.7 274.3,58.7 289.1,58.7 303.9,58.7 318.7,58.7 333.5,58.7 348.4,58.7 363.2,58.7 378.0,58.7 392.8,58.7 407.6,58.7 422.5,58.7 437.3,58.7 452.1,42.4 466.9,42.4 481.7,42.4 496.5,42.4 511.4,42.4 526.2,42.4 541.0,26.0 555.8,26.0 570.6,26.0 585.5,26.0 600.3,26.0 615.1,26.0 629.9,26.0 644.7,26.0 659.5,26.0 674.4,26.0 689.2,26.0 704.0,26.0 704.0,26.0" fill="none" stroke="url(#line)" stroke-width="2.5" stroke-linejoin="round" stroke-linecap="round"/>
</svg>
