<svg xmlns="http://www.w3.org/2000/svg" width="720" height="240" viewBox="0 0 720 240">
<defs>
<linearGradient id="line" x1="0" y1="0" x2="1" y2="0">
<stop offset="0%" stop-color="#bd93f9"/>
<stop offset="100%" stop-color="#50fa7b"/>
</linearGradient>
<linearGradient id="fill" x1="0" y1="0" x2="0" y2="1">
<stop offset="0%" stop-color="#bd93f9" stop-opacity="0.28"/>
<stop offset="100%" stop-color="#50fa7b" stop-opacity="0.05"/>
</linearGradient>
</defs>
<rect width="720" height="240" fill="#282a36"/>
<text x="52" y="18" font-size="13" font-weight="bold" fill="#f8f8f2">Plaid — stars over time</text>
<text x="704" y="18" text-anchor="end" font-size="12" fill="#50fa7b">13 ★</text>
<line x1="52" y1="206.0" x2="704" y2="206.0" stroke="#44475a" stroke-width="1"/><line x1="52" y1="164.5" x2="704" y2="164.5" stroke="#44475a" stroke-width="1"/><line x1="52" y1="122.9" x2="704" y2="122.9" stroke="#44475a" stroke-width="1"/><line x1="52" y1="81.4" x2="704" y2="81.4" stroke="#44475a" stroke-width="1"/><line x1="52" y1="39.8" x2="704" y2="39.8" stroke="#44475a" stroke-width="1"/>
<text x="44" y="210.0" text-anchor="end" font-size="11" fill="#6272a4">0</text><text x="44" y="168.5" text-anchor="end" font-size="11" fill="#6272a4">3</text><text x="44" y="126.9" text-anchor="end" font-size="11" fill="#6272a4">6</text><text x="44" y="85.4" text-anchor="end" font-size="11" fill="#6272a4">9</text><text x="44" y="43.8" text-anchor="end" font-size="11" fill="#6272a4">12</text>
<text x="52.0" y="228" text-anchor="middle" font-size="11" fill="#6272a4">Aug 05</text><text x="205.4" y="228" text-anchor="middle" font-size="11" fill="#6272a4">Aug 13</text><text x="378.0" y="228" text-anchor="middle" font-size="11" fill="#6272a4">Aug 22</text><text x="550.6" y="228" text-anchor="middle" font-size="11" fill="#6272a4">Aug 31</text><text x="704.0" y="228" text-anchor="middle" font-size="11" fill="#6272a4">Sep 08</text>
<path d="M52.0,206.0 L52.0,178.3 L71.2,164.5 L90.4,150.6 L109.5,95.2 L128.7,95.2 L147.9,81.4 L167.1,81.4 L186.2,81.4 L205.4,81.4 L224.6,81.4 L243.8,81.4 L262.9,81.4 L282.1,81.4 L301.3,81.4 L320.5,81.4 L339.6,81.4 L358.8,81.4 L378.0,81.4 L397.2,81.4 L416.4,81.4 L435.5,81.4 L454.7,81.4 L473.9,81.4 L493.1,81.4 L512.2,81.4 L531.4,81.4 L550.6,81.4 L569.8,53.7 L588.9,39.8 L608.1,39.8 L627.3,39.8 L646.5,39.8 L665.6,39.8 L684.8,26.0 L704.0,26.0 L704.0,26.0 L704.0,206.0 Z" fill="url(#fill)"/>
<path d="M52.0,178.3 71.2,164.5 90.4,150.6 109.5,95.2 128.7,95.2 147.9,81.4 167.1,81.4 186.2,81.4 205.4,81.4 224.6,81.4 243.8,81.4 262.9,81.4 282.1,81.4 301.3,81.4 320.5,81.4 339.6,81.4 358.8,81.4 378.0,81.4 397.2,81.4 416.4,81.4 435.5,81.4 454.7,81.4 473.9,81.4 493.1,81.4 512.2,81.4 531.4,81.4 550.6,81.4 569.8,53.7 588.9,39.8 608.1,39.8 627.3,39.8 646.5,39.8 665.6,39.8 684.8,26.0 704.0,26.0 704.0,26.0" fill="none" stroke="url(#line)" stroke-width="2.5" stroke-linejoin="round" stroke-linecap="round"/>
</svg>
