<svg xmlns="http://www.w3.org/2000/svg" width="720" height="240" viewBox="0 0 720 240">
<defs>
<linearGradient id="line" x1="0" y1="0" x2="1" y2="0">
<stop offset="0%" stop-color="#bd93f9"/>
<stop offset="100%" stop-color="#50fa7b"/>
</linearGradient>
<linearGradient id="fill" x1="0" y1="0" x2="0" y2="1">
<stop offset="0%" stop-color="#bd93f9" stop-opacity="0.28"/>
<stop offset="100%" stop-color="#50fa7b" stop-opacity="0.05"/>
</linearGradient>
</defs>
<rect width="720" height="240" fill="#282a36"/>
<text x="52" y="18" font-size="13" font-weight="bold" fill="#f8f8f2">Plaid — stars over time</text>
<text x="704" y="18" text-anchor="end" font-size="12" fill="#50fa7b">12 ★</text>
<line x1="52" y1="206.0" x2="704" y2="206.0" stroke="#44475a" stroke-width="1"/><line x1="52" y1="161.0" x2="704" y2="161.0" stroke="#44475a" stroke-width="1"/><line x1="52" y1="116.0" x2="704" y2="116.0" stroke="#44475a" stroke-width="1"/><line x1="52" y1="71.0" x2="704" y2="71.0" stroke="#44475a" stroke-width="1"/><line x1="52" y1="26.0" x2="704" y2="26.0" stroke="#44475a" stroke-width="1"/>
<text x="44" y="210.0" text-anchor="end" font-size="11" fill="#6272a4">0</text><text x="44" y="165.0" text-anchor="end" font-size="11" fill="#6272a4">3</text><text x="44" y="120.0" text-anchor="end" font-size="11" fill="#6272a4">6</text><text x="44" y="75.0" text-anchor="end" font-size="11" fill="#6272a4">9</text><text x="44" y="30.0" text-anchor="end" font-size="11" fill="#6272a4">12</text>
<text x="52.0" y="228" text-anchor="middle" font-size="11" fill="#6272a4">Aug 05</text><text x="215.0" y="228" text-anchor="middle" font-size="11" fill="#6272a4">Aug 09</text><text x="378.0" y="228" text-anchor="middle" font-size="11" fill="#6272a4">Aug 13</text><text x="541.0" y="228" text-anchor="middle" font-size="11" fill="#6272a4">Aug 17</text><text x="704.0" y="228" text-anchor="middle" font-size="11" fill="#6272a4">Aug 21</text>
<path d="M52.0,206.0 L52.0,176.0 L92.8,131.0 L133.5,116.0 L174.2,56.0 L215.0,56.0 L255.8,41.0 L296.5,41.0 L337.2,41.0 L378.0,41.0 L418.8,41.0 L459.5,41.0 L500.2,41.0 L541.0,26.0 L581.8,26.0 L622.5,26.0 L663.2,26.0 L704.0,26.0 L704.0,26.0 L704.0,206.0 Z" fill="url(#fill)"/>
<path d="M52.0,176.0 92.8,131.0 133.5,116.0 174.2,56.0 215.0,56.0 255.8,41.0 296.5,41.0 337.2,41.0 378.0,41.0 418.8,41.0 459.5,41.0 500.2,41.0 541.0,26.0 581.8,26.0 622.5,26.0 663.2,26.0 704.0,26.0 704.0,26.0" fill="none" stroke="url(#line)" stroke-width="2.5" stroke-linejoin="round" stroke-linecap="round"/>
</svg>
