<svg xmlns="http://www.w3.org/2000/svg" width="720" height="240" viewBox="0 0 720 240">
<defs>
<linearGradient id="line" x1="0" y1="0" x2="1" y2="0">
<stop offset="0%" stop-color="#bd93f9"/>
<stop offset="100%" stop-color="#50fa7b"/>
</linearGradient>
<linearGradient id="fill" x1="0" y1="0" x2="0" y2="1">
<stop offset="0%" stop-color="#bd93f9" stop-opacity="0.28"/>
<stop offset="100%" stop-color="#50fa7b" stop-opacity="0.05"/>
</linearGradient>
</defs>
<rect width="720" height="240" fill="#282a36"/>
<text x="52" y="18" font-size="13" font-weight="bold" fill="#f8f8f2">Plaid — stars over time</text>
<text x="704" y="18" text-anchor="end" font-size="12" fill="#50fa7b">11 ★</text>
<line x1="52" y1="206.0" x2="704" y2="206.0" stroke="#44475a" stroke-width="1"/><line x1="52" y1="156.9" x2="704" y2="156.9" stroke="#44475a" stroke-width="1"/><line x1="52" y1="107.8" x2="704" y2="107.8" stroke="#44475a" stroke-width="1"/><line x1="52" y1="58.7" x2="704" y2="58.7" stroke="#44475a" stroke-width="1"/>
<text x="44" y="210.0" text-anchor="end" font-size="11" fill="#6272a4">0</text><text x="44" y="160.9" text-anchor="end" font-size="11" fill="#6272a4">3</text><text x="44" y="111.8" text-anchor="end" font-size="11" fill="#6272a4">6</text><text x="44" y="62.7" text-anchor="end" font-size="11" fill="#6272a4">9</text>
<text x="52.0" y="228" text-anchor="middle" font-size="11" fill="#6272a4">Aug 05</text><text x="223.6" y="228" text-anchor="middle" font-size="11" fill="#6272a4">Aug 10</text><text x="395.2" y="228" text-anchor="middle" font-size="11" fill="#6272a4">Aug 15</text><text x="532.4" y="228" text-anchor="middle" font-size="11" fill="#6272a4">Aug 19</text><text x="704.0" y="228" text-anchor="middle" font-size="11" fill="#6272a4">Aug 24</text>
<path d="M52.0,206.0 L52.0,173.3 L86.3,140.5 L120.6,124.2 L154.9,58.7 L189.3,58.7 L223.6,42.4 L257.9,42.4 L292.2,42.4 L326.5,42.4 L360.8,42.4 L395.2,42.4 L429.5,42.4 L463.8,26.0 L498.1,26.0 L532.4,26.0 L566.7,26.0 L601.1,26.0 L635.4,26.0 L669.7,26.0 L704.0,26.0 L704.0,26.0 L704.0,206.0 Z" fill="url(#fill)"/>
<path d="M52.0,173.3 86.3,140.5 120.6,124.2 154.9,58.7 189.3,58.7 223.6,42.4 257.9,42.4 292.2,42.4 326.5,42.4 360.8,42.4 395.2,42.4 429.5,42.4 463.8,26.0 498.1,26.0 532.4,26.0 566.7,26.0 601.1,26.0 635.4,26.0 669.7,26.0 704.0,26.0 704.0,26.0" fill="none" stroke="url(#line)" stroke-width="2.5" stroke-linejoin="round" stroke-linecap="round"/>
</svg>
